<?xml version="1.0" encoding="UTF-8"?>
<svg width="16pt" height="9pt" version="1.1" viewBox="0 -75 700 700" xmlns="http://www.w3.org/2000/svg" xmlns:xlink="http://www.w3.org/1999/xlink">
 <g>
  <path fill="#0093af" d="m607.6 95.199h-515.2v369.6h515.2zm-22.398 22.398-0.003906 272.11-109.93-112.84-75.211 64.738-123.65-96.77-161.61 158.37v-285.6zm-470.4 324.8v-7.9492l163.24-160.05 122.7 96.098 73.195-62.887 111.27 114.18v20.605z"/>
  <path fill="#0093af" d="m508.65 252c14.852 0 29.094-5.8984 39.598-16.402 10.5-10.5 16.402-24.746 16.402-39.598s-5.9023-29.098-16.402-39.598c-10.504-10.504-24.746-16.402-39.598-16.402-14.852 0-29.098 5.8984-39.598 16.402-10.504 10.5-16.402 24.746-16.402 39.598s5.8984 29.098 16.402 39.598c10.5 10.504 24.746 16.402 39.598 16.402zm0-89.602c8.9102 0 17.457 3.543 23.758 9.8438 6.3008 6.3008 9.8398 14.848 9.8398 23.758s-3.5391 17.457-9.8398 23.758c-6.3008 6.3008-14.848 9.8438-23.758 9.8438-8.9102 0-17.457-3.543-23.758-9.8438-6.3008-6.3008-9.8438-14.848-9.8438-23.758s3.543-17.457 9.8438-23.758c6.3008-6.3008 14.848-9.8438 23.758-9.8438z"/>
 </g>
</svg>
