<!DOCTYPE svg PUBLIC "-//W3C//DTD SVG 20010904//EN" "http://www.w3.org/TR/2001/REC-SVG-20010904/DTD/svg10.dtd">
<svg version="1.0" xmlns="http://www.w3.org/2000/svg" width="481px" height="136px" viewBox="0 0 4810 1360" preserveAspectRatio="xMidYMid meet">
<g id="layer101" fill="#330065" stroke="none">
<path d="M682 1243 c-35 -7 -52 -58 -52 -158 l0 -85 -118 0 c-92 0 -132 -4 -175 -19 -66 -23 -142 -73 -158 -104 -7 -12 -15 -24 -18 -27 -4 -3 -15 -24 -25 -48 -27 -61 -28 -203 -1 -263 11 -24 23 -48 27 -54 39 -54 77 -86 132 -113 58 -28 75 -32 151 -32 70 0 96 5 140 25 77 35 129 86 165 161 l30 64 0 309 0 310 -26 20 c-27 21 -30 22 -72 14z m-52 -497 c0 -128 -5 -148 -51 -200 -98 -112 -261 -72 -308 76 -16 50 -5 100 35 152 51 68 99 86 222 86 l102 0 0 -114z"/>
<path d="M915 1243 c-44 -12 -44 -19 -45 -419 0 -326 2 -385 16 -412 18 -38 57 -67 102 -77 l32 -7 0 435 c0 400 -1 436 -17 455 -19 23 -56 33 -88 25z"/>
<path d="M2249 1223 c-9 -10 -15 -51 -17 -120 l-4 -103 -116 0 c-170 0 -238 -24 -315 -110 -122 -136 -117 -332 13 -460 70 -70 125 -90 238 -90 106 0 172 28 246 103 73 75 86 120 86 285 l0 132 355 0 355 0 0 -108 c0 -125 -18 -174 -83 -226 -33 -26 -48 -31 -120 -35 -112 -8 -157 -39 -173 -120 l-7 -33 139 4 c130 3 143 5 199 33 72 36 125 88 159 158 25 50 26 56 26 259 l0 208 -425 0 -425 0 0 98 c0 90 -2 100 -23 120 -28 27 -88 30 -108 5z m-19 -475 c-1 -157 -27 -213 -119 -253 -74 -33 -158 -6 -211 66 -40 56 -48 114 -22 171 42 96 104 127 250 128 l102 0 0 -112z"/>
<path d="M1113 963 c19 -68 68 -103 144 -103 82 0 158 -41 206 -110 23 -33 23 -127 0 -160 -49 -69 -89 -92 -181 -100 -43 -4 -90 -13 -107 -21 -35 -17 -75 -73 -75 -105 l0 -24 140 0 c128 0 144 2 197 26 69 30 95 53 139 120 81 126 64 310 -40 422 -64 69 -139 92 -308 92 l-126 0 11 -37z"/>
<path d="M2846 229 c-20 -16 -26 -29 -26 -58 0 -49 24 -71 78 -71 48 0 72 25 72 76 0 37 -38 74 -75 74 -12 0 -34 -9 -49 -21z"/>
</g>
<g id="layer102" fill="#f7a31c" stroke="none">
<path d="M3447 1260 l-27 -21 0 -387 c0 -366 1 -389 20 -419 23 -38 55 -60 98 -69 l32 -6 0 435 c0 399 -1 436 -17 456 -27 32 -73 37 -106 11z"/>
<path d="M3921 1254 l-31 -26 0 -374 c0 -353 1 -377 20 -413 13 -27 33 -46 63 -60 83 -40 77 -74 77 405 0 380 -2 429 -17 454 -15 26 -39 40 -70 40 -6 0 -25 -12 -42 -26z"/>
<path d="M4326 1249 c-18 -22 -24 -78 -11 -99 4 -7 21 -18 38 -25 77 -32 138 48 91 120 -22 34 -91 36 -118 4z"/>
<path d="M3729 1013 c-23 -9 -44 -28 -58 -53 -20 -37 -21 -48 -21 -434 l0 -396 36 0 c47 0 88 25 108 67 14 29 16 86 16 433 l0 400 -22 -1 c-13 -1 -39 -8 -59 -16z"/>
<path d="M4130 576 l0 -456 28 6 c48 11 86 39 104 74 15 31 17 75 18 364 l0 329 69 -5 c82 -6 142 -36 173 -87 19 -31 23 -56 28 -186 4 -94 11 -160 20 -177 17 -35 72 -68 112 -68 l30 0 -4 208 c-4 184 -6 212 -25 252 -32 69 -97 135 -161 167 -54 26 -65 28 -224 31 l-168 4 0 -456z"/>
<path d="M3912 260 c-26 -25 -29 -75 -6 -108 12 -17 25 -22 58 -22 51 0 76 22 76 69 0 67 -80 105 -128 61z"/>
</g>


</svg>