<?xml version="1.0" encoding="utf-8"?>
<!-- Generator: Adobe Illustrator 24.3.0, SVG Export Plug-In . SVG Version: 6.00 Build 0)  -->
<svg version="1.1" xmlns="http://www.w3.org/2000/svg" xmlns:xlink="http://www.w3.org/1999/xlink" x="0px" y="0px"
	 viewBox="0 0 512 512" style="enable-background:new 0 0 512 512;" xml:space="preserve">
<style type="text/css">
	.st0{fill:none;}
	.st1{fill:url(#Path_141_1_);}
	.st2{fill:#3F51B5;}
	.st3{fill:url(#Path_142_1_);}
</style>
<g id="Layer_1">
	<path id="Path_138" class="st0" d="M439.7,291.1c0,44.7-9.5,77.4-28.2,97.2c-18.4,19.5-45.7,29-83.3,29h-43.6
		c-37.6,0-64.9-9.5-83.4-29c-18.3-19.4-27.8-51.3-28.1-94.8h14.7c40.5,0,71.4-12,91.9-35.8c18.6-21.5,28.1-52.4,29-94.3h19.6
		c37.5,0,64.8,9.6,83.2,29.4C430.2,212.9,439.7,246,439.7,291.1z"/>
	<path id="Path_139" class="st0" d="M233.1,103.2c-0.9-1.6-2-3.2-3.2-4.6c-7.3-8.6-21.5-13-42.1-13h-43.6c-20.7,0-35,4.4-42.5,13.1
		c-4.9,5.8-13.2,21-13.2,58.6c0,37.2,8,52.1,12.8,57.6c3.6,3.9,8.2,6.9,13.3,8.5c6.1-28.1,19.4-54.2,38.7-75.6
		C174.8,125.3,202.6,109.7,233.1,103.2z"/>
	
		<linearGradient id="Path_141_1_" gradientUnits="userSpaceOnUse" x1="-695.992" y1="668.3054" x2="-690.8605" y2="661.9954" gradientTransform="matrix(27.611 0 0 -26.4849 19317.6777 17762.998)">
		<stop  offset="0" style="stop-color:#93D8DE"/>
		<stop  offset="1" style="stop-color:#65C8D0"/>
	</linearGradient>
	<path id="Path_141" class="st1" d="M308.6,163.4c-0.9,41.8-10.4,72.7-29,94.3c-20.5,23.7-51.4,35.8-91.9,35.8h-14.7
		c0-0.8,0-1.6,0-2.4c-0.5-21.4,2.4-42.8,8.6-63.3c4-12.9,10.7-24.9,19.7-34.9c11.2-11.8,25.5-20.1,41.2-24.2
		c13.7-3.6,27.8-5.4,41.9-5.2L308.6,163.4z"/>
	<path id="Path_140" class="st2" d="M448.4,147.9c-31.1-33.3-75.3-50.2-131.3-50.2h-26.7c5.2,19.3,7.6,39.2,7.2,59.2
		c0,2.2,0,4.4-0.1,6.5h19.5c37.5,0,64.8,9.6,83.2,29.3c18.8,20.1,28.3,53.2,28.3,98.3c0,44.7-9.5,77.4-28.2,97.2
		c-18.5,19.5-45.7,29-83.4,29h-43.6c-37.6,0-64.9-9.5-83.4-29c-18.4-19.4-27.8-51.3-28.1-94.8h-28.9c-12.4,0.1-24.7-1.2-36.8-3.8
		c0,0.5,0,0.9,0,1.4c0,62.1,15.5,110,46.2,142.4c31.1,32.9,75.2,49.6,131.1,49.6h43.6c55.9,0,100-16.7,131.1-49.6
		c30.6-32.4,46.2-80.3,46.2-142.4C494.5,228.7,479,180.6,448.4,147.9z"/>
	
		<linearGradient id="Path_142_1_" gradientUnits="userSpaceOnUse" x1="-699.6096" y1="671.6255" x2="-697.1088" y2="668.5843" gradientTransform="matrix(56.742 0 0 -54.942 39778.5 36970.8086)">
		<stop  offset="0" style="stop-color:#93D8DE"/>
		<stop  offset="1" style="stop-color:#65C8D0"/>
	</linearGradient>
	<path id="Path_142" class="st3" d="M290.5,97.7h-16.9c-17.3-0.1-34.6,1.8-51.5,5.6c-30.5,6.5-58.3,22-79.7,44.6
		c-19.2,21.4-32.6,47.5-38.6,75.6c-5,21.7-7.5,43.9-7.4,66.2c-21.6-4.2-41.1-15.3-55.7-31.8c-19.4-22.5-28.8-55.4-28.8-100.5
		c0-45.4,9.5-78.6,29-101.4c20.5-24,51.6-36.1,92.4-36.1h43.5c40.9,0,71.9,12.2,92.3,36.3C279.1,68.3,286.4,82.5,290.5,97.7z"/>
</g>
<g id="Layer_3">
</g>
<g id="Filled">
</g>
</svg>
